# xmcd
#
# Track frame offsets: 
#        182
#        13657
#        24515
#        37012
#        51665
#        64420
#        74397
#        87352
#        101027
#        113642
#        125975
#        140257
#        153897
#        176600
#        190712
#        201582
#        216027
#        230415
#
# Disc length: 3240 seconds
#
# Revision: 1
# Processed by: cddbd v1.5.2PL0 Copyright (c) Steve Scherf et al.
# Submitted via: ExactAudioCopy v0.99pb5
#
DISCID=0d0ca612
DTITLE=The Standells - The Best Of The Standells
DYEAR=1989
DGENRE=
TTITLE0=Dirty Water
TTITLE1=Riot On Sunset Strip
TTITLE2=Sometimes Good Guys Don't Wear White
TTITLE3=Why Pick On Me
TTITLE4=Mr. Nobody
TTITLE5=Mainline
TTITLE6=Have You Ever Spent The Night In Jail
TTITLE7=Try It
TTITLE8=Medication
TTITLE9=Little Sally Tease
TTITLE10=Barracuda
TTITLE11=Black Hearted Woman
TTITLE12=Rari
TTITLE13=Can't Help But Love You
TTITLE14=All Fall Down
TTITLE15=There's A Storm Comin'
TTITLE16=Animal Girl
TTITLE17=Don't Say Goodbye
EXTD=
EXTT0=
EXTT1=
EXTT2=
EXTT3=
EXTT4=
EXTT5=
EXTT6=
EXTT7=
EXTT8=
EXTT9=
EXTT10=
EXTT11=
EXTT12=
EXTT13=
EXTT14=
EXTT15=
EXTT16=
EXTT17=
PLAYORDER=
